<?xml version="1.0" standalone="no"?>
<!DOCTYPE svg PUBLIC "-//W3C//DTD SVG 20010904//EN"
 "http://www.w3.org/TR/2001/REC-SVG-20010904/DTD/svg10.dtd">
<svg version="1.0" xmlns="http://www.w3.org/2000/svg"
 width="25.000000pt" height="25.000000pt" viewBox="0 0 400.000000 400.000000"
 preserveAspectRatio="xMidYMid meet">

<g transform="translate(0.000000,400.000000) scale(0.100000,-0.100000)"
fill="#000000" stroke="none">
<path d="M955 3460 c-140 -26 -308 -77 -302 -93 2 -7 39 -32 83 -56 179 -98
351 -252 457 -408 55 -82 59 -103 20 -103 -41 0 -188 -37 -268 -67 -189 -71
-368 -188 -539 -353 -116 -112 -256 -279 -256 -305 0 -8 19 -16 53 -20 167
-22 358 -75 513 -141 114 -49 264 -130 264 -144 0 -4 -17 -19 -37 -33 -130
-87 -259 -223 -364 -381 -65 -99 -138 -271 -121 -288 6 -6 42 -5 110 6 112 18
311 21 417 6 193 -28 394 -96 670 -229 209 -101 331 -145 470 -167 93 -15 122
-16 235 -6 188 18 302 53 445 136 121 71 315 285 315 347 0 6 18 29 40 51 47
48 61 98 37 139 -14 26 -14 30 8 71 41 78 85 227 96 327 5 53 19 123 29 156
28 89 42 171 41 237 -1 93 -51 188 -106 202 -20 5 -23 14 -30 88 -23 273 -122
567 -261 778 -50 77 -81 107 -94 94 -5 -5 -25 -72 -45 -149 -45 -176 -66 -245
-77 -245 -4 0 -56 41 -115 90 -303 254 -579 386 -946 452 -179 32 -583 36
-742 8z m470 -30 c153 -14 278 -36 432 -76 141 -36 183 -51 308 -109 78 -35
109 -54 246 -142 157 -100 370 -295 554 -506 55 -63 102 -113 104 -112 18 18
-195 321 -249 353 -26 16 -25 30 18 153 17 48 36 121 43 163 7 47 16 75 23 73
19 -5 139 -257 174 -362 65 -200 125 -525 97 -525 -3 0 -17 12 -31 28 l-26 27
21 -36 21 -36 -36 -34 c-50 -48 -121 -158 -150 -231 -27 -70 -27 -98 1 -53
102 167 178 258 230 275 45 15 68 2 89 -50 17 -42 21 -182 7 -230 -7 -22 -11
-15 -30 48 -13 43 -27 72 -35 72 -8 0 -29 -24 -47 -52 -56 -89 -231 -319 -294
-387 -57 -61 -129 -121 -146 -121 -4 0 1 19 11 43 28 63 43 170 36 245 -13
126 -46 140 -46 20 0 -82 -23 -199 -54 -272 -29 -70 -74 -50 -321 146 -297
235 -510 348 -581 310 -11 -6 -31 -32 -44 -59 -24 -45 -25 -57 -25 -208 1
-148 3 -166 28 -234 15 -40 38 -94 52 -118 14 -25 25 -47 25 -49 0 -2 -28 -4
-62 -4 -141 0 -248 -97 -249 -225 -1 -30 -5 -52 -10 -50 -13 9 -74 124 -94
178 -18 47 -35 62 -35 29 0 -77 67 -224 140 -305 25 -28 38 -48 30 -45 -8 3
-63 27 -121 52 -288 124 -568 165 -818 121 -51 -9 -95 -14 -97 -12 -8 8 70
154 128 240 74 110 258 297 345 352 35 22 63 45 63 51 0 49 -278 207 -453 258
-89 26 -295 66 -338 66 -23 0 -39 5 -39 11 0 15 92 120 200 229 204 205 414
324 696 395 76 19 144 35 151 35 9 0 11 -36 6 -152 -4 -121 -2 -172 11 -242
34 -177 58 -167 39 16 -17 164 -12 297 22 533 30 209 31 215 52 215 23 0 166
-84 253 -148 112 -83 287 -232 355 -301 59 -60 85 -75 85 -47 0 28 -139 170
-285 291 -74 62 -311 225 -345 238 -8 3 -32 12 -52 21 -31 13 -39 14 -51 2
-13 -13 -48 -157 -64 -266 l-8 -55 -34 55 c-87 141 -248 295 -414 395 -36 22
-66 43 -67 47 0 13 176 47 300 57 69 6 141 13 160 15 71 6 87 6 195 -4z m817
-1667 c28 -25 25 -114 -5 -149 l-24 -27 -21 21 c-40 40 -19 170 27 172 3 0 13
-7 23 -17z m793 -58 c-10 -71 -45 -84 -60 -24 -5 21 0 34 27 64 38 44 45 35
33 -40z m-1205 -385 c9 0 46 -19 81 -42 83 -54 178 -104 248 -131 42 -17 77
-22 142 -22 l85 0 145 72 c139 69 233 101 263 90 11 -4 4 -17 -25 -46 -35 -35
-40 -45 -37 -78 2 -30 10 -42 38 -61 31 -21 43 -23 97 -18 33 3 89 17 124 31
34 14 64 25 67 25 10 0 -65 -92 -131 -159 -151 -154 -335 -238 -562 -256 -313
-26 -695 131 -775 318 -42 97 -26 189 42 240 34 25 115 48 152 42 16 -3 36 -5
46 -5z m1226 -5 c8 -21 -7 -37 -61 -64 -37 -18 -49 -20 -60 -11 -27 22 -16 41
38 65 61 29 76 31 83 10z"/>
<path d="M1453 2978 c-20 -24 -43 -222 -43 -367 0 -136 19 -272 41 -295 5 -6
29 10 58 37 71 66 202 149 301 190 47 20 86 42 88 50 5 22 -78 124 -180 222
-140 135 -239 195 -265 163z m142 -121 c80 -63 230 -219 230 -239 0 -6 -18
-17 -40 -26 -49 -19 -194 -111 -257 -164 l-47 -39 -8 28 c-9 38 -10 441 0 476
4 16 14 27 25 27 10 0 53 -28 97 -63z"/>
<path d="M1745 2280 c-71 -34 -125 -96 -125 -144 l0 -31 45 52 c78 88 177 116
277 76 108 -43 278 -161 427 -298 67 -61 91 -76 91 -56 0 15 -118 137 -202
208 -104 88 -222 166 -294 192 -71 27 -165 27 -219 1z"/>
<path d="M1736 1074 c-26 -25 -19 -32 28 -27 60 7 166 -26 289 -90 53 -27 100
-47 104 -44 20 21 -115 114 -223 153 -78 29 -174 32 -198 8z"/>
</g>
</svg>
